<?xml version="1.0" encoding="utf-8" ?>
<svg baseProfile="tiny" height="16" version="1.2" width="16" xmlns="http://www.w3.org/2000/svg" xmlns:ev="http://www.w3.org/2001/xml-events" xmlns:xlink="http://www.w3.org/1999/xlink"><defs /><rect fill="#191919" fill-opacity="0.2" height="1" width="1" x="4" y="0" /><rect fill="#353535" fill-opacity="0.7294" height="1" width="1" x="5" y="0" /><rect fill="#515151" fill-opacity="0.8627" height="1" width="1" x="6" y="0" /><rect fill="#555455" fill-opacity="0.902" height="1" width="1" x="7" y="0" /><rect fill="#505050" fill-opacity="0.8784" height="1" width="1" x="8" y="0" /><rect fill="#5e5e5e" fill-opacity="0.7843" height="1" width="1" x="9" y="0" /><rect fill="#3d3d3d" fill-opacity="0.6353" height="1" width="1" x="10" y="0" /><rect fill="#151515" fill-opacity="0.1882" height="1" width="1" x="11" y="0" /><rect fill="#000000" fill-opacity="0.0235" height="1" width="1" x="2" y="1" /><rect fill="#343434" fill-opacity="0.6588" height="1" width="1" x="3" y="1" /><rect fill="#272727" fill-opacity="0.9725" height="1" width="1" x="4" y="1" /><rect fill="#bbbabb" fill-opacity="0.9686" height="1" width="1" x="5" y="1" /><rect fill="#f9f8f9" fill-opacity="1.0" height="1" width="1" x="6" y="1" /><rect fill="#bebdbe" fill-opacity="0.9961" height="1" width="1" x="7" y="1" /><rect fill="#b2b2b2" fill-opacity="1.0" height="1" width="1" x="8" y="1" /><rect fill="#e8e8e8" fill-opacity="1.0" height="1" width="1" x="9" y="1" /><rect fill="#e2e2e2" fill-opacity="1.0" height="1" width="1" x="10" y="1" /><rect fill="#858585" fill-opacity="0.9216" height="1" width="1" x="11" y="1" /><rect fill="#373737" fill-opacity="0.6392" height="1" width="1" x="12" y="1" /><rect fill="#000000" fill-opacity="0.0235" height="1" width="1" x="13" y="1" /><rect fill="#000000" fill-opacity="0.0235" height="1" width="1" x="1" y="2" /><rect fill="#404040" fill-opacity="0.7922" height="1" width="1" x="2" y="2" /><rect fill="#8a8a8a" fill-opacity="0.9961" height="1" width="1" x="3" y="2" /><rect fill="#acabac" fill-opacity="0.9686" height="1" width="1" x="4" y="2" /><rect fill="#f9f8f9" fill-opacity="1.0" height="1" width="1" x="5" y="2" /><rect fill="#f9f8f9" fill-opacity="1.0" height="1" width="1" x="6" y="2" /><rect fill="#bdbdbd" fill-opacity="1.0" height="1" width="1" x="7" y="2" /><rect fill="#b2b2b2" fill-opacity="1.0" height="1" width="1" x="8" y="2" /><rect fill="#e8e8e8" fill-opacity="1.0" height="1" width="1" x="9" y="2" /><rect fill="#e8e8e8" fill-opacity="1.0" height="1" width="1" x="10" y="2" /><rect fill="#e8e8e8" fill-opacity="1.0" height="1" width="1" x="11" y="2" /><rect fill="#cccccc" fill-opacity="0.9922" height="1" width="1" x="12" y="2" /><rect fill="#3a3a3a" fill-opacity="0.7569" height="1" width="1" x="13" y="2" /><rect fill="#000000" fill-opacity="0.0235" height="1" width="1" x="14" y="2" /><rect fill="#434243" fill-opacity="0.702" height="1" width="1" x="1" y="3" /><rect fill="#cbcbcb" fill-opacity="0.9804" height="1" width="1" x="2" y="3" /><rect fill="#767576" fill-opacity="0.9373" height="1" width="1" x="3" y="3" /><rect fill="#f9f8f9" fill-opacity="1.0" height="1" width="1" x="4" y="3" /><rect fill="#f9f8f9" fill-opacity="1.0" height="1" width="1" x="5" y="3" /><rect fill="#f9f8f9" fill-opacity="1.0" height="1" width="1" x="6" y="3" /><rect fill="#bebdbe" fill-opacity="0.9961" height="1" width="1" x="7" y="3" /><rect fill="#aeaeae" fill-opacity="1.0" height="1" width="1" x="8" y="3" /><rect fill="#c1b89a" fill-opacity="0.9922" height="1" width="1" x="9" y="3" /><rect fill="#5a5133" fill-opacity="0.9686" height="1" width="1" x="10" y="3" /><rect fill="#60605f" fill-opacity="0.9686" height="1" width="1" x="11" y="3" /><rect fill="#777777" fill-opacity="0.9647" height="1" width="1" x="12" y="3" /><rect fill="#8d8d8d" fill-opacity="0.9961" height="1" width="1" x="13" y="3" /><rect fill="#343434" fill-opacity="0.651" height="1" width="1" x="14" y="3" /><rect fill="#191919" fill-opacity="0.2" height="1" width="1" x="0" y="4" /><rect fill="#818182" fill-opacity="0.9216" height="1" width="1" x="1" y="4" /><rect fill="#e8e8e8" fill-opacity="1.0" height="1" width="1" x="2" y="4" /><rect fill="#5b5a5a" fill-opacity="0.9569" height="1" width="1" x="3" y="4" /><rect fill="#b7b6b7" fill-opacity="1.0" height="1" width="1" x="4" y="4" /><rect fill="#b7b6b7" fill-opacity="1.0" height="1" width="1" x="5" y="4" /><rect fill="#b7b6b7" fill-opacity="1.0" height="1" width="1" x="6" y="4" /><rect fill="#8b8b8b" fill-opacity="0.9961" height="1" width="1" x="7" y="4" /><rect fill="#3f3c2f" fill-opacity="0.9804" height="1" width="1" x="8" y="4" /><rect fill="#fede6b" fill-opacity="1.0" height="1" width="1" x="9" y="4" /><rect fill="#c1a952" fill-opacity="1.0" height="1" width="1" x="10" y="4" /><rect fill="#c0c0c0" fill-opacity="1.0" height="1" width="1" x="11" y="4" /><rect fill="#f9f8f9" fill-opacity="1.0" height="1" width="1" x="12" y="4" /><rect fill="#b6b6b6" fill-opacity="0.9725" height="1" width="1" x="13" y="4" /><rect fill="#2a2a2a" fill-opacity="0.9765" height="1" width="1" x="14" y="4" /><rect fill="#1a1a1a" fill-opacity="0.1922" height="1" width="1" x="15" y="4" /><rect fill="#424042" fill-opacity="0.6706" height="1" width="1" x="0" y="5" /><rect fill="#dddcdd" fill-opacity="0.9922" height="1" width="1" x="1" y="5" /><rect fill="#e8e8e8" fill-opacity="1.0" height="1" width="1" x="2" y="5" /><rect fill="#564e2f" fill-opacity="0.9529" height="1" width="1" x="3" y="5" /><rect fill="#bba44e" fill-opacity="1.0" height="1" width="1" x="4" y="5" /><rect fill="#b29c4b" fill-opacity="1.0" height="1" width="1" x="5" y="5" /><rect fill="#423854" fill-opacity="0.9569" height="1" width="1" x="6" y="5" /><rect fill="#5a4b7a" fill-opacity="0.9961" height="1" width="1" x="7" y="5" /><rect fill="#8e7d3f" fill-opacity="0.9412" height="1" width="1" x="8" y="5" /><rect fill="#eed064" fill-opacity="1.0" height="1" width="1" x="9" y="5" /><rect fill="#b49d4c" fill-opacity="1.0" height="1" width="1" x="10" y="5" /><rect fill="#c0c0c0" fill-opacity="1.0" height="1" width="1" x="11" y="5" /><rect fill="#f9f8f9" fill-opacity="1.0" height="1" width="1" x="12" y="5" /><rect fill="#f9f8f9" fill-opacity="1.0" height="1" width="1" x="13" y="5" /><rect fill="#b7b6b7" fill-opacity="0.9725" height="1" width="1" x="14" y="5" /><rect fill="#363636" fill-opacity="0.7176" height="1" width="1" x="15" y="5" /><rect fill="#646465" fill-opacity="0.8588" height="1" width="1" x="0" y="6" /><rect fill="#e3e3e4" fill-opacity="1.0" height="1" width="1" x="1" y="6" /><rect fill="#e8e8e8" fill-opacity="1.0" height="1" width="1" x="2" y="6" /><rect fill="#76715f" fill-opacity="0.9725" height="1" width="1" x="3" y="6" /><rect fill="#f0d265" fill-opacity="1.0" height="1" width="1" x="4" y="6" /><rect fill="#f2d466" fill-opacity="1.0" height="1" width="1" x="5" y="6" /><rect fill="#433b49" fill-opacity="0.9686" height="1" width="1" x="6" y="6" /><rect fill="#453d57" fill-opacity="0.9412" height="1" width="1" x="7" y="6" /><rect fill="#514653" fill-opacity="0.9686" height="1" width="1" x="8" y="6" /><rect fill="#423a44" fill-opacity="0.9725" height="1" width="1" x="9" y="6" /><rect fill="#54485c" fill-opacity="0.9882" height="1" width="1" x="10" y="6" /><rect fill="#c0c0c0" fill-opacity="1.0" height="1" width="1" x="11" y="6" /><rect fill="#f9f8f9" fill-opacity="1.0" height="1" width="1" x="12" y="6" /><rect fill="#f9f8f9" fill-opacity="1.0" height="1" width="1" x="13" y="6" /><rect fill="#f9f8f9" fill-opacity="1.0" height="1" width="1" x="14" y="6" /><rect fill="#535353" fill-opacity="0.8784" height="1" width="1" x="15" y="6" /><rect fill="#525152" fill-opacity="0.9373" height="1" width="1" x="0" y="7" /><rect fill="#a6a6a6" fill-opacity="1.0" height="1" width="1" x="1" y="7" /><rect fill="#d2d2d2" fill-opacity="1.0" height="1" width="1" x="2" y="7" /><rect fill="#adadad" fill-opacity="1.0" height="1" width="1" x="3" y="7" /><rect fill="#3a3629" fill-opacity="0.9686" height="1" width="1" x="4" y="7" /><rect fill="#8f7e3d" fill-opacity="0.9294" height="1" width="1" x="5" y="7" /><rect fill="#443c4d" fill-opacity="0.9373" height="1" width="1" x="6" y="7" /><rect fill="#30293a" fill-opacity="0.702" height="1" width="1" x="7" y="7" /><rect fill="#332c3e" fill-opacity="0.7098" height="1" width="1" x="8" y="7" /><rect fill="#433a55" fill-opacity="0.9647" height="1" width="1" x="9" y="7" /><rect fill="#5f5082" fill-opacity="1.0" height="1" width="1" x="10" y="7" /><rect fill="#8e8d8e" fill-opacity="1.0" height="1" width="1" x="11" y="7" /><rect fill="#b7b6b7" fill-opacity="1.0" height="1" width="1" x="12" y="7" /><rect fill="#b7b6b7" fill-opacity="1.0" height="1" width="1" x="13" y="7" /><rect fill="#b7b6b7" fill-opacity="1.0" height="1" width="1" x="14" y="7" /><rect fill="#515051" fill-opacity="0.902" height="1" width="1" x="15" y="7" /><rect fill="#565656" fill-opacity="0.9569" height="1" width="1" x="0" y="8" /><rect fill="#afafaf" fill-opacity="1.0" height="1" width="1" x="1" y="8" /><rect fill="#e2e1e2" fill-opacity="1.0" height="1" width="1" x="2" y="8" /><rect fill="#c7c6c7" fill-opacity="1.0" height="1" width="1" x="3" y="8" /><rect fill="#8b8a8b" fill-opacity="0.9961" height="1" width="1" x="4" y="8" /><rect fill="#5e4f81" fill-opacity="1.0" height="1" width="1" x="5" y="8" /><rect fill="#413850" fill-opacity="0.9216" height="1" width="1" x="6" y="8" /><rect fill="#312b3c" fill-opacity="0.698" height="1" width="1" x="7" y="8" /><rect fill="#332d40" fill-opacity="0.7059" height="1" width="1" x="8" y="8" /><rect fill="#4a414b" fill-opacity="0.9686" height="1" width="1" x="9" y="8" /><rect fill="#948245" fill-opacity="0.9608" height="1" width="1" x="10" y="8" /><rect fill="#3b382d" fill-opacity="0.9843" height="1" width="1" x="11" y="8" /><rect fill="#9f9f9f" fill-opacity="1.0" height="1" width="1" x="12" y="8" /><rect fill="#aaaaaa" fill-opacity="1.0" height="1" width="1" x="13" y="8" /><rect fill="#aaaaaa" fill-opacity="1.0" height="1" width="1" x="14" y="8" /><rect fill="#4e4e4e" fill-opacity="0.8941" height="1" width="1" x="15" y="8" /><rect fill="#575757" fill-opacity="0.9333" height="1" width="1" x="0" y="9" /><rect fill="#ebebeb" fill-opacity="1.0" height="1" width="1" x="1" y="9" /><rect fill="#f9f8f9" fill-opacity="1.0" height="1" width="1" x="2" y="9" /><rect fill="#f9f8f9" fill-opacity="1.0" height="1" width="1" x="3" y="9" /><rect fill="#bcbbbc" fill-opacity="0.9922" height="1" width="1" x="4" y="9" /><rect fill="#54475e" fill-opacity="1.0" height="1" width="1" x="5" y="9" /><rect fill="#423a43" fill-opacity="0.949" height="1" width="1" x="6" y="9" /><rect fill="#4c434e" fill-opacity="0.9608" height="1" width="1" x="7" y="9" /><rect fill="#463e59" fill-opacity="0.9373" height="1" width="1" x="8" y="9" /><rect fill="#3f3840" fill-opacity="0.9529" height="1" width="1" x="9" y="9" /><rect fill="#f7d868" fill-opacity="1.0" height="1" width="1" x="10" y="9" /><rect fill="#edcf63" fill-opacity="1.0" height="1" width="1" x="11" y="9" /><rect fill="#7a7564" fill-opacity="0.9882" height="1" width="1" x="12" y="9" /><rect fill="#e8e8e8" fill-opacity="1.0" height="1" width="1" x="13" y="9" /><rect fill="#e8e8e8" fill-opacity="1.0" height="1" width="1" x="14" y="9" /><rect fill="#5c5c5c" fill-opacity="0.7843" height="1" width="1" x="15" y="9" /><rect fill="#424242" fill-opacity="0.7765" height="1" width="1" x="0" y="10" /><rect fill="#a0a0a0" fill-opacity="0.9961" height="1" width="1" x="1" y="10" /><rect fill="#f5f4f5" fill-opacity="1.0" height="1" width="1" x="2" y="10" /><rect fill="#f9f8f9" fill-opacity="1.0" height="1" width="1" x="3" y="10" /><rect fill="#bcbcbc" fill-opacity="1.0" height="1" width="1" x="4" y="10" /><rect fill="#b8a14d" fill-opacity="1.0" height="1" width="1" x="5" y="10" /><rect fill="#eed064" fill-opacity="1.0" height="1" width="1" x="6" y="10" /><rect fill="#8c7b3e" fill-opacity="0.9373" height="1" width="1" x="7" y="10" /><rect fill="#5b4d7d" fill-opacity="1.0" height="1" width="1" x="8" y="10" /><rect fill="#473c4f" fill-opacity="0.9843" height="1" width="1" x="9" y="10" /><rect fill="#b59e4c" fill-opacity="1.0" height="1" width="1" x="10" y="10" /><rect fill="#bba44e" fill-opacity="1.0" height="1" width="1" x="11" y="10" /><rect fill="#595134" fill-opacity="0.9686" height="1" width="1" x="12" y="10" /><rect fill="#e8e8e8" fill-opacity="1.0" height="1" width="1" x="13" y="10" /><rect fill="#e1e1e1" fill-opacity="1.0" height="1" width="1" x="14" y="10" /><rect fill="#3e3e3e" fill-opacity="0.6471" height="1" width="1" x="15" y="10" /><rect fill="#2e2e2e" fill-opacity="0.2196" height="1" width="1" x="0" y="11" /><rect fill="#2d2d2d" fill-opacity="0.9922" height="1" width="1" x="1" y="11" /><rect fill="#adadad" fill-opacity="0.9843" height="1" width="1" x="2" y="11" /><rect fill="#f8f7f8" fill-opacity="1.0" height="1" width="1" x="3" y="11" /><rect fill="#bcbcbc" fill-opacity="1.0" height="1" width="1" x="4" y="11" /><rect fill="#c5ac53" fill-opacity="1.0" height="1" width="1" x="5" y="11" /><rect fill="#eed064" fill-opacity="1.0" height="1" width="1" x="6" y="11" /><rect fill="#413d30" fill-opacity="0.9922" height="1" width="1" x="7" y="11" /><rect fill="#8d8c8d" fill-opacity="1.0" height="1" width="1" x="8" y="11" /><rect fill="#b7b6b7" fill-opacity="1.0" height="1" width="1" x="9" y="11" /><rect fill="#b7b6b7" fill-opacity="1.0" height="1" width="1" x="10" y="11" /><rect fill="#b7b6b7" fill-opacity="1.0" height="1" width="1" x="11" y="11" /><rect fill="#605f5e" fill-opacity="0.9647" height="1" width="1" x="12" y="11" /><rect fill="#e8e8e8" fill-opacity="1.0" height="1" width="1" x="13" y="11" /><rect fill="#848484" fill-opacity="0.9255" height="1" width="1" x="14" y="11" /><rect fill="#161616" fill-opacity="0.1804" height="1" width="1" x="15" y="11" /><rect fill="#505050" fill-opacity="0.7412" height="1" width="1" x="1" y="12" /><rect fill="#858586" fill-opacity="1.0" height="1" width="1" x="2" y="12" /><rect fill="#747374" fill-opacity="0.9843" height="1" width="1" x="3" y="12" /><rect fill="#5d5d5d" fill-opacity="0.9647" height="1" width="1" x="4" y="12" /><rect fill="#5d5536" fill-opacity="0.9804" height="1" width="1" x="5" y="12" /><rect fill="#7a7563" fill-opacity="1.0" height="1" width="1" x="6" y="12" /><rect fill="#a5a5a5" fill-opacity="1.0" height="1" width="1" x="7" y="12" /><rect fill="#bfbfbf" fill-opacity="1.0" height="1" width="1" x="8" y="12" /><rect fill="#f9f8f9" fill-opacity="1.0" height="1" width="1" x="9" y="12" /><rect fill="#f9f8f9" fill-opacity="1.0" height="1" width="1" x="10" y="12" /><rect fill="#f9f8f9" fill-opacity="1.0" height="1" width="1" x="11" y="12" /><rect fill="#b8b8b8" fill-opacity="0.949" height="1" width="1" x="12" y="12" /><rect fill="#cbcbcb" fill-opacity="0.9961" height="1" width="1" x="13" y="12" /><rect fill="#373737" fill-opacity="0.6353" height="1" width="1" x="14" y="12" /><rect fill="#000000" fill-opacity="0.0235" height="1" width="1" x="1" y="13" /><rect fill="#676667" fill-opacity="0.8235" height="1" width="1" x="2" y="13" /><rect fill="#dcdbdd" fill-opacity="1.0" height="1" width="1" x="3" y="13" /><rect fill="#dedddf" fill-opacity="1.0" height="1" width="1" x="4" y="13" /><rect fill="#e4e4e4" fill-opacity="1.0" height="1" width="1" x="5" y="13" /><rect fill="#e8e8e8" fill-opacity="1.0" height="1" width="1" x="6" y="13" /><rect fill="#b0b0b0" fill-opacity="1.0" height="1" width="1" x="7" y="13" /><rect fill="#bfbfbf" fill-opacity="1.0" height="1" width="1" x="8" y="13" /><rect fill="#f9f8f9" fill-opacity="1.0" height="1" width="1" x="9" y="13" /><rect fill="#f9f8f9" fill-opacity="1.0" height="1" width="1" x="10" y="13" /><rect fill="#b1b1b1" fill-opacity="0.9608" height="1" width="1" x="11" y="13" /><rect fill="#a8a7a9" fill-opacity="0.9843" height="1" width="1" x="12" y="13" /><rect fill="#3d3d3d" fill-opacity="0.7882" height="1" width="1" x="13" y="13" /><rect fill="#000000" fill-opacity="0.0235" height="1" width="1" x="14" y="13" /><rect fill="#787678" fill-opacity="0.6588" height="1" width="1" x="3" y="14" /><rect fill="#908f90" fill-opacity="0.9882" height="1" width="1" x="4" y="14" /><rect fill="#d9d8da" fill-opacity="1.0" height="1" width="1" x="5" y="14" /><rect fill="#deddde" fill-opacity="1.0" height="1" width="1" x="6" y="14" /><rect fill="#acabac" fill-opacity="1.0" height="1" width="1" x="7" y="14" /><rect fill="#b9b8b9" fill-opacity="1.0" height="1" width="1" x="8" y="14" /><rect fill="#f2f2f2" fill-opacity="1.0" height="1" width="1" x="9" y="14" /><rect fill="#a9a9a9" fill-opacity="0.9804" height="1" width="1" x="10" y="14" /><rect fill="#272727" fill-opacity="0.9804" height="1" width="1" x="11" y="14" /><rect fill="#434343" fill-opacity="0.7216" height="1" width="1" x="12" y="14" /><rect fill="#000000" fill-opacity="0.0235" height="1" width="1" x="13" y="14" /><rect fill="#252525" fill-opacity="0.2157" height="1" width="1" x="4" y="15" /><rect fill="#535353" fill-opacity="0.7569" height="1" width="1" x="5" y="15" /><rect fill="#6a6a6b" fill-opacity="0.9137" height="1" width="1" x="6" y="15" /><rect fill="#575757" fill-opacity="0.9647" height="1" width="1" x="7" y="15" /><rect fill="#595959" fill-opacity="0.9804" height="1" width="1" x="8" y="15" /><rect fill="#545454" fill-opacity="0.9412" height="1" width="1" x="9" y="15" /><rect fill="#3e3e3e" fill-opacity="0.7725" height="1" width="1" x="10" y="15" /><rect fill="#151515" fill-opacity="0.1882" height="1" width="1" x="11" y="15" /></svg>